<svg width="23" height="23" viewBox="0 0 23 23" fill="none" xmlns="http://www.w3.org/2000/svg">
<path d="M8.5064 17.0128C6.12897 17.0128 4.11688 16.1894 2.47013 14.5427C0.823376 12.8959 0 10.8838 0 8.5064C0 6.12897 0.823376 4.11688 2.47013 2.47013C4.11688 0.823376 6.12897 0 8.5064 0C10.8838 0 12.8959 0.823376 14.5427 2.47013C16.1894 4.11688 17.0128 6.12897 17.0128 8.5064C17.0128 9.4661 16.8601 10.3713 16.5548 11.2219C16.2494 12.0725 15.835 12.825 15.3115 13.4794L22.6401 20.808C22.88 21.0479 23 21.3532 23 21.724C23 22.0948 22.88 22.4002 22.6401 22.6401C22.4002 22.88 22.0948 23 21.724 23C21.3532 23 21.0479 22.88 20.808 22.6401L13.4794 15.3115C12.825 15.835 12.0725 16.2494 11.2219 16.5548C10.3713 16.8601 9.4661 17.0128 8.5064 17.0128ZM8.5064 14.3954C10.1422 14.3954 11.5327 13.8229 12.6778 12.6778C13.8229 11.5327 14.3954 10.1422 14.3954 8.5064C14.3954 6.87055 13.8229 5.48009 12.6778 4.33499C11.5327 3.1899 10.1422 2.61735 8.5064 2.61735C6.87055 2.61735 5.48009 3.1899 4.33499 4.33499C3.1899 5.48009 2.61735 6.87055 2.61735 8.5064C2.61735 10.1422 3.1899 11.5327 4.33499 12.6778C5.48009 13.8229 6.87055 14.3954 8.5064 14.3954Z" fill="white"/>
</svg>
